# Blender 3.5.0
# www.blender.org
o Window
v 0.042009 3.432103 -0.808362
v 0.105792 3.405830 -0.903284
v 0.189248 3.379167 -0.981368
v 0.284550 3.353082 -1.042262
v 0.392475 3.328110 -1.081504
v 0.506772 3.306102 -1.097480
v 0.213984 3.582207 -1.028255
v 0.311821 3.554518 -1.094499
v 0.046683 3.534144 -0.830840
v 0.525146 3.404257 -1.128866
v 0.025074 3.531451 -0.848276
v 0.020552 3.429489 -0.825941
v 0.096134 3.504754 -0.945621
v 0.086575 3.403213 -0.922649
v 0.185298 3.477229 -1.025857
v 0.172792 3.376086 -1.002534
v 0.285374 3.449158 -1.091599
v 0.271682 3.348787 -1.065645
v 0.397942 3.422926 -1.133075
v 0.382154 3.323036 -1.106359
v 0.516641 3.397886 -1.154527
v 0.498528 3.299767 -1.123286
v 0.299176 3.550100 -1.117966
v 0.197789 3.579020 -1.049494
v 0.023493 3.499909 -0.774211
v 0.033254 3.436421 -0.789511
v 0.014789 3.481692 -0.753420
v 0.013589 3.463286 -0.749031
v 0.020107 3.447366 -0.761687
v 0.527634 3.302292 -1.097341
v 0.568145 3.352167 -1.115477
v 0.560251 3.300704 -1.098449
v 0.579402 3.309647 -1.102092
v 0.582213 3.327838 -1.108150
v 0.011797 3.433807 -0.807090
v 0.002030 3.497416 -0.791805
v -0.001350 3.444752 -0.779267
v -0.007867 3.460672 -0.766611
v -0.006673 3.479199 -0.771014
v 0.559774 3.345422 -1.141133
v 0.519390 3.295957 -1.123148
v 0.573842 3.321093 -1.133806
v 0.571158 3.303312 -1.127898
v 0.552007 3.294369 -1.124255
v 0.155314 3.600001 -0.977156
v 0.101102 3.588633 -0.916630
v 0.135392 3.602018 -0.959316
v 0.116163 3.597805 -0.937348
v 0.453018 3.493022 -1.135300
v 0.384969 3.537427 -1.121657
v 0.433327 3.511756 -1.134285
v 0.408750 3.527857 -1.129668
v 0.372323 3.533010 -1.145124
v 0.441959 3.488101 -1.159720
v 0.407224 3.481945 -1.149014
v 0.396104 3.523440 -1.153135
v 0.422269 3.506836 -1.158705
v 0.082486 3.585804 -0.936353
v 0.138834 3.596875 -0.998279
v 0.101695 3.564753 -0.959295
v 0.097547 3.594976 -0.957071
v 0.118912 3.598891 -0.980440
v 0.570260 3.305378 -1.100353
v 0.562016 3.299043 -1.126159
v 1.039482 3.339589 -0.242473
v 0.974574 3.365064 -0.147760
v 0.892102 3.391424 -0.069548
v 0.794062 3.418019 -0.009956
v 0.685734 3.443360 0.028422
v 0.571731 3.466427 0.046595
v 0.939408 3.594632 -0.084035
v 0.837464 3.622166 -0.022375
v 1.066992 3.439356 -0.252090
v 0.589099 3.568872 0.043544
v 1.087628 3.435246 -0.233708
v 1.059777 3.334372 -0.223989
v 1.017886 3.462560 -0.134348
v 0.991415 3.361134 -0.126590
v 0.930220 3.490493 -0.052598
v 0.905634 3.388510 -0.046477
v 0.827856 3.518136 0.009486
v 0.805445 3.415641 0.014445
v 0.715171 3.544357 0.049971
v 0.695085 3.441401 0.054034
v 0.596392 3.568288 0.070322
v 0.578727 3.464671 0.073427
v 0.849168 3.621037 0.001950
v 0.953241 3.592974 -0.061031
v 1.075503 3.384541 -0.294736
v 1.047793 3.335255 -0.261527
v 1.076743 3.359278 -0.308882
v 1.071957 3.340908 -0.307489
v 1.061929 3.332843 -0.290884
v 0.550835 3.469956 0.046774
v 0.530435 3.532848 0.045825
v 0.519704 3.479758 0.047251
v 0.504851 3.494891 0.047102
v 0.508644 3.513678 0.046582
v 1.068087 3.330039 -0.243043
v 1.096140 3.380430 -0.276355
v 1.082223 3.327627 -0.272400
v 1.092594 3.336798 -0.289107
v 1.097380 3.355168 -0.290501
v 0.537610 3.532170 0.072651
v 0.557830 3.468200 0.073606
v 0.515818 3.513000 0.073409
v 0.512026 3.494213 0.073929
v 0.526700 3.478002 0.074083
v 0.995070 3.576874 -0.136077
v 1.037290 3.531408 -0.189309
v 1.012960 3.566983 -0.153520
v 1.027883 3.550525 -0.172420
v 0.686574 3.626095 0.026125
v 0.764432 3.639243 0.005094
v 0.711351 3.635975 0.020812
v 0.739348 3.640984 0.014505
v 0.776135 3.638114 0.029418
v 0.696350 3.625431 0.051609
v 0.726651 3.605088 0.046039
v 0.751051 3.639855 0.038829
v 0.721126 3.635312 0.046295
v 1.055582 3.528450 -0.169125
v 1.011069 3.574608 -0.114413
v 1.032313 3.522536 -0.140030
v 1.046174 3.547566 -0.152236
v 1.028959 3.564717 -0.131856
v 0.511909 3.487470 0.047200
v 0.519084 3.486792 0.074027
vn -0.3801 0.8608 0.3385
vn -0.4254 0.8099 0.4038
vn -0.4347 0.7981 0.4172
vn -0.0551 -0.9756 0.2124
vn -0.0841 -0.9656 0.2462
vn -0.0585 -0.9751 0.2139
vn -0.1089 -0.9678 0.2270
vn -0.1222 -0.9622 0.2433
vn -0.1217 -0.9621 0.2439
vn 0.1203 0.9618 -0.2459
vn 0.1929 0.9402 -0.2809
vn 0.1211 0.9618 -0.2455
vn 0.1083 0.9675 -0.2285
vn 0.0442 0.9827 -0.1800
vn 0.0384 0.9837 -0.1756
vn -0.3720 0.8993 0.2297
vn -0.3821 0.8626 0.3316
vn 0.1091 0.9675 -0.2283
vn -0.0867 -0.9718 0.2194
vn -0.0891 -0.9717 0.2189
vn 0.6693 0.6118 -0.4216
vn 0.7421 0.5476 -0.3866
vn 0.6587 0.6218 -0.4236
vn -0.1099 -0.9678 0.2263
vn -0.1421 -0.9562 0.2560
vn -0.1577 -0.9467 0.2809
vn -0.1606 -0.9454 0.2834
vn -0.1414 -0.9568 0.2539
vn -0.1176 -0.9551 0.2720
vn -0.0954 -0.9593 0.2660
vn -0.3146 -0.1986 -0.9282
vn -0.4781 -0.1577 -0.8640
vn -0.3787 -0.1881 -0.9062
vn -0.9119 -0.0441 -0.4079
vn -0.8500 -0.0643 -0.5228
vn -0.8755 -0.0635 -0.4790
vn -0.6741 -0.0985 -0.7320
vn -0.6221 -0.1072 -0.7756
vn -0.6237 -0.1062 -0.7744
vn -0.2979 -0.2111 -0.9310
vn -0.2392 -0.2245 -0.9447
vn -0.1789 -0.2635 -0.9479
vn -0.8027 -0.0674 -0.5926
vn -0.7517 -0.0795 -0.6547
vn -0.0369 -0.3090 -0.9504
vn -0.0434 -0.3076 -0.9505
vn -0.0521 -0.2998 -0.9526
vn -0.7616 -0.0822 -0.6428
vn -0.6242 -0.1053 -0.7742
vn -0.4741 -0.1558 -0.8666
vn -0.2828 -0.2059 -0.9368
vn -0.1315 -0.2724 -0.9532
vn 0.7460 0.5447 -0.3830
vn 0.8004 0.4618 -0.3821
vn 0.8105 0.4446 -0.3814
vn 0.8469 0.3767 -0.3754
vn 0.9424 -0.2263 -0.2464
vn 0.9423 -0.2257 -0.2472
vn 0.9422 -0.2247 -0.2484
vn 0.4344 -0.8970 0.0815
vn 0.2407 -0.9576 0.1582
vn 0.1693 -0.9683 0.1836
vn -0.4675 0.7526 0.4637
vn -0.6341 0.2178 0.7419
vn -0.6340 0.2176 0.7421
vn -0.6343 0.2182 0.7417
vn -0.4241 -0.6636 0.6163
vn -0.3121 -0.8073 0.5009
vn -0.2674 -0.8506 0.4528
vn -0.0992 -0.9595 0.2637
vn -0.3629 -0.1879 -0.9127
vn -0.2834 -0.1944 -0.9391
vn -0.7621 -0.0571 -0.6449
vn -0.7391 -0.0787 -0.6690
vn -0.6867 -0.0997 -0.7201
vn 0.5466 0.7378 -0.3962
vn 0.5291 0.7498 -0.3974
vn 0.3634 0.8629 -0.3511
vn 0.3430 0.8721 -0.3490
vn 0.2011 0.9373 -0.2848
vn -0.0951 0.9928 -0.0728
vn -0.1071 0.9927 -0.0551
vn -0.2509 0.9638 0.0899
vn -0.2599 0.9596 0.1077
vn -0.3670 0.9047 0.2166
vn -0.4825 -0.1590 -0.8613
vn -0.9096 -0.0403 -0.4135
vn -0.9090 -0.0403 -0.4148
vn -0.9081 -0.0405 -0.4167
vn -0.9084 -0.0407 -0.4161
vn -0.0488 -0.3059 -0.9508
vn -0.0385 -0.3089 -0.9503
vn -0.0358 -0.3102 -0.9500
vn 0.9424 -0.2273 -0.2453
vn -0.6338 0.2173 0.7424
vn 0.6120 0.5554 -0.5630
vn 0.6356 0.4772 -0.6069
vn 0.6398 0.4604 -0.6154
vn -0.3057 -0.9497 0.0676
vn -0.2779 -0.9600 0.0342
vn -0.3034 -0.9507 0.0650
vn -0.2606 -0.9649 0.0308
vn -0.2367 -0.9715 0.0159
vn -0.2367 -0.9715 0.0156
vn 0.2162 0.9746 -0.0588
vn 0.1450 0.9891 -0.0239
vn 0.2162 0.9746 -0.0589
vn 0.2317 0.9703 -0.0694
vn 0.2925 0.9491 -0.1166
vn 0.2991 0.9464 -0.1219
vn 0.6209 0.6211 -0.4783
vn 0.6146 0.5579 -0.5577
vn 0.2308 0.9706 -0.0689
vn -0.2837 -0.9577 0.0477
vn -0.2815 -0.9584 0.0460
vn -0.4061 0.8970 0.1748
vn -0.4936 0.8553 0.1574
vn -0.3934 0.9027 0.1744
vn -0.2592 -0.9654 0.0301
vn -0.2102 -0.9777 0.0012
vn -0.1851 -0.9826 -0.0153
vn -0.1816 -0.9832 -0.0170
vn -0.2119 -0.9773 0.0028
vn -0.2233 -0.9747 -0.0056
vn -0.2446 -0.9696 0.0003
vn 0.2625 0.0097 0.9649
vn 0.4233 -0.0366 0.9052
vn 0.3393 -0.0193 0.9405
vn 0.8784 -0.2004 0.4339
vn 0.8160 -0.1670 0.5535
vn 0.8367 -0.1823 0.5164
vn 0.6643 -0.0908 0.7419
vn 0.5875 -0.0653 0.8066
vn 0.5865 -0.0795 0.8061
vn 0.2551 -0.0011 0.9669
vn 0.1874 0.0242 0.9820
vn 0.1304 0.0121 0.9914
vn 0.7892 -0.1388 0.5983
vn 0.7286 -0.1258 0.6733
vn 0.0165 0.0235 0.9996
vn 0.0210 0.0222 0.9995
vn 0.0204 0.0243 0.9995
vn 0.7262 -0.1380 0.6734
vn 0.5843 -0.0927 0.8062
vn 0.4204 -0.0484 0.9060
vn 0.2504 -0.0105 0.9681
vn 0.0931 0.0126 0.9956
vn -0.4977 0.8535 0.1542
vn -0.5736 0.8005 0.1736
vn -0.5875 0.7896 0.1771
vn -0.6446 0.7403 0.1911
vn -0.9457 0.1980 0.2579
vn -0.7267 -0.6672 0.1639
vn -0.7068 -0.6880 0.1644
vn -0.7474 -0.6466 0.1526
vn -0.3001 -0.9538 0.0158
vn 0.6539 0.3939 -0.6460
vn 0.6242 -0.2195 -0.7498
vn 0.1400 -0.9101 -0.3901
vn 0.1399 -0.9136 -0.3817
vn 0.1398 -0.9212 -0.3630
vn -0.2247 -0.9740 -0.0282
vn -0.2624 -0.9648 0.0158
vn 0.3184 -0.0270 0.9476
vn 0.2190 0.0318 0.9752
vn 0.7590 -0.1071 0.6422
vn 0.7297 -0.1086 0.6751
vn 0.6867 -0.0853 0.7220
vn -0.2562 0.9587 0.1233
vn -0.2326 0.9648 0.1226
vn -0.0430 0.9974 0.0581
vn -0.0159 0.9984 0.0540
vn 0.1369 0.9904 -0.0199
vn 0.4185 0.8819 -0.2169
vn 0.4290 0.8715 -0.2374
vn 0.5407 0.7570 -0.3669
vn 0.5460 0.7437 -0.3857
vn 0.6188 0.6308 -0.4683
vn -0.7147 -0.6775 0.1740
vn -0.7057 -0.6874 0.1714
vn 0.4314 -0.0233 0.9019
vn 0.8784 -0.2029 0.4327
vn 0.8773 -0.1979 0.4372
vn 0.8777 -0.1955 0.4375
vn 0.8788 -0.1985 0.4339
vn 0.0151 0.0197 0.9997
vn 0.0126 0.0251 0.9996
vn 0.1400 -0.9021 -0.4083
vt 0.000000 0.375000
vt 1.000000 0.375000
vt 0.968750 0.375000
vt 0.937500 0.375000
vt 0.906250 0.375000
vt 0.875000 0.375000
vt 0.843750 0.375000
vt 0.937500 0.406250
vt 0.906250 0.406250
vt 1.000000 0.390625
vt 0.000000 0.390625
vt 0.843750 0.390625
vt 0.000000 0.390625
vt 1.000000 0.390625
vt 1.000000 0.375000
vt 0.000000 0.375000
vt 0.968750 0.390625
vt 0.968750 0.375000
vt 0.937500 0.390625
vt 0.937500 0.375000
vt 0.906250 0.390625
vt 0.906250 0.375000
vt 0.875000 0.390625
vt 0.875000 0.375000
vt 0.843750 0.390625
vt 0.843750 0.375000
vt 0.906250 0.406250
vt 0.937500 0.406250
vt 0.013725 0.383763
vt 0.005566 0.375000
vt 0.019502 0.380874
vt 0.031250 0.375000
vt 0.014033 0.375000
vt 0.838188 0.375000
vt 0.830139 0.383819
vt 0.829708 0.375000
vt 0.812500 0.375000
vt 0.824317 0.380908
vt 0.005566 0.375000
vt 0.013725 0.383763
vt 0.014042 0.375222
vt 0.027031 0.375856
vt 0.019160 0.380719
vt 0.830139 0.383819
vt 0.838187 0.375000
vt 0.824659 0.380754
vt 0.816730 0.375861
vt 0.829705 0.375224
vt 0.957606 0.406250
vt 0.977457 0.401897
vt 0.964255 0.406250
vt 0.972262 0.404494
vt 0.866236 0.401868
vt 0.886144 0.406250
vt 0.871460 0.404480
vt 0.879502 0.406250
vt 0.886144 0.406250
vt 0.867009 0.406250
vt 0.866236 0.401868
vt 0.875000 0.399804
vt 0.879502 0.406250
vt 0.872498 0.406250
vt 0.871460 0.404480
vt 0.977457 0.401897
vt 0.962466 0.409392
vt 0.957606 0.406250
vt 0.968750 0.399801
vt 0.972262 0.404494
vt 0.966775 0.407237
vt 0.964255 0.406250
vt 0.820731 0.375002
vt 0.822906 0.375554
vt 0.000000 0.375000
vt 1.000000 0.375000
vt 0.968750 0.375000
vt 0.937500 0.375000
vt 0.906250 0.375000
vt 0.875000 0.375000
vt 0.843750 0.375000
vt 0.937500 0.406250
vt 0.906250 0.406250
vt 1.000000 0.390625
vt 0.000000 0.390625
vt 0.843750 0.390625
vt 0.000000 0.390625
vt 1.000000 0.390625
vt 1.000000 0.375000
vt 0.000000 0.375000
vt 0.968750 0.390625
vt 0.968750 0.375000
vt 0.937500 0.390625
vt 0.937500 0.375000
vt 0.906250 0.390625
vt 0.906250 0.375000
vt 0.875000 0.390625
vt 0.875000 0.375000
vt 0.843750 0.390625
vt 0.843750 0.375000
vt 0.906250 0.406250
vt 0.937500 0.406250
vt 0.013725 0.383763
vt 0.005566 0.375000
vt 0.019502 0.380874
vt 0.031250 0.375000
vt 0.014033 0.375000
vt 0.838188 0.375000
vt 0.830139 0.383819
vt 0.829708 0.375000
vt 0.812500 0.375000
vt 0.824317 0.380908
vt 0.005566 0.375000
vt 0.013725 0.383763
vt 0.014042 0.375222
vt 0.027031 0.375856
vt 0.019160 0.380719
vt 0.830139 0.383819
vt 0.838187 0.375000
vt 0.824659 0.380754
vt 0.816730 0.375861
vt 0.829705 0.375224
vt 0.957606 0.406250
vt 0.977457 0.401897
vt 0.964255 0.406250
vt 0.972262 0.404494
vt 0.866236 0.401868
vt 0.886144 0.406250
vt 0.871460 0.404480
vt 0.879502 0.406250
vt 0.886144 0.406250
vt 0.867009 0.406250
vt 0.866236 0.401868
vt 0.875000 0.399804
vt 0.879502 0.406250
vt 0.872498 0.406250
vt 0.871460 0.404480
vt 0.977457 0.401897
vt 0.962466 0.409392
vt 0.957606 0.406250
vt 0.968750 0.399801
vt 0.972262 0.404494
vt 0.966775 0.407237
vt 0.964255 0.406250
vt 0.820731 0.375002
vt 0.822906 0.375554
s 1
f 9/11/1 36/40/2 25/29/3
f 1/1/4 35/39/5 12/16/6
f 3/4/7 18/22/8 4/5/9
f 8/9/10 53/57/11 23/27/12
f 7/8/13 59/66/14 45/49/15
f 46/50/16 11/14/17 9/10/1
f 7/8/13 23/27/12 24/28/18
f 2/3/19 12/15/6 14/18/20
f 49/53/21 21/25/22 54/59/23
f 3/4/7 14/18/20 16/20/24
f 5/6/25 22/26/26 6/7/27
f 4/5/9 20/24/28 5/6/25
f 6/7/27 41/45/29 30/34/30
f 55/60/31 17/21/32 53/57/33
f 36/40/34 11/13/35 12/16/36
f 59/66/37 24/28/38 15/19/39
f 19/23/40 54/59/41 21/25/42
f 24/28/38 17/21/32 15/19/39
f 58/64/43 13/17/44 11/14/35
f 64/72/45 44/48/46 40/44/47
f 11/14/35 14/18/48 12/15/36
f 13/17/44 16/20/49 14/18/48
f 15/19/39 18/22/50 16/20/49
f 17/21/32 20/24/51 18/22/50
f 19/23/40 22/26/52 20/24/51
f 10/12/53 40/44/54 21/25/22
f 31/35/55 42/46/56 40/44/54
f 34/38/57 43/47/58 42/46/59
f 64/72/60 32/36/61 44/48/62
f 44/48/62 30/34/30 41/45/29
f 25/29/3 39/43/63 27/31/63
f 27/31/64 38/42/65 28/32/66
f 38/42/67 29/33/68 28/32/67
f 37/41/69 26/30/70 29/33/68
f 53/57/33 56/61/71 55/60/31
f 56/61/71 57/62/72 55/60/31
f 57/62/72 54/58/41 55/60/31
f 58/64/43 61/68/73 60/67/74
f 61/68/73 62/69/75 60/67/74
f 62/69/75 59/65/37 60/67/74
f 54/59/23 51/55/76 49/53/21
f 57/63/77 52/56/78 51/55/76
f 56/61/79 50/54/80 52/56/78
f 45/49/15 62/70/81 47/51/82
f 47/51/82 61/68/83 48/52/84
f 48/52/84 58/64/85 46/50/16
f 43/47/60 63/71/60 64/72/60
f 46/50/16 58/64/85 11/14/17
f 58/64/43 60/67/74 13/17/44
f 9/11/1 11/13/17 36/40/2
f 1/1/4 26/30/70 35/39/5
f 3/4/7 16/20/24 18/22/8
f 8/9/10 50/54/80 53/57/11
f 7/8/13 24/28/18 59/66/14
f 7/8/13 8/9/10 23/27/12
f 2/3/19 1/2/4 12/15/6
f 49/53/21 10/12/53 21/25/22
f 3/4/7 2/3/19 14/18/20
f 5/6/25 20/24/28 22/26/26
f 4/5/9 18/22/8 20/24/28
f 6/7/27 22/26/26 41/45/29
f 19/23/40 17/21/32 55/60/31
f 17/21/32 23/27/86 53/57/33
f 12/16/36 35/39/87 36/40/34
f 35/39/87 37/41/88 36/40/34
f 37/41/88 38/42/89 39/43/90
f 39/43/90 36/40/34 37/41/88
f 15/19/39 13/17/44 60/67/74
f 60/67/74 59/66/37 15/19/39
f 19/23/40 55/60/31 54/59/41
f 24/28/38 23/27/86 17/21/32
f 41/45/91 22/26/52 40/44/47
f 22/26/52 21/25/42 40/44/47
f 40/44/47 42/46/92 64/72/45
f 41/45/91 40/44/47 44/48/46
f 42/46/92 43/47/93 64/72/45
f 11/14/35 13/17/44 14/18/48
f 13/17/44 15/19/39 16/20/49
f 15/19/39 17/21/32 18/22/50
f 17/21/32 19/23/40 20/24/51
f 19/23/40 21/25/42 22/26/52
f 10/12/53 31/35/55 40/44/54
f 31/35/55 34/38/56 42/46/56
f 34/38/57 33/37/94 43/47/58
f 64/72/60 63/71/60 32/36/61
f 44/48/62 32/36/61 30/34/30
f 25/29/3 36/40/2 39/43/63
f 27/31/64 39/43/95 38/42/65
f 38/42/67 37/41/69 29/33/68
f 37/41/69 35/39/5 26/30/70
f 54/59/23 57/63/77 51/55/76
f 57/63/77 56/61/79 52/56/78
f 56/61/79 53/57/11 50/54/80
f 45/49/15 59/66/14 62/70/81
f 47/51/82 62/70/81 61/68/83
f 48/52/84 61/68/83 58/64/85
f 43/47/60 33/37/60 63/71/60
f 73/83/96 100/112/97 89/101/98
f 65/73/99 99/111/100 76/88/101
f 67/76/102 82/94/103 68/77/104
f 72/81/105 117/129/106 87/99/107
f 71/80/108 123/138/109 109/121/110
f 110/122/111 75/86/112 73/82/96
f 71/80/108 87/99/107 88/100/113
f 66/75/114 76/87/101 78/90/115
f 113/125/116 85/97/117 118/131/118
f 67/76/102 78/90/115 80/92/119
f 69/78/120 86/98/121 70/79/122
f 68/77/104 84/96/123 69/78/120
f 70/79/122 105/117/124 94/106/125
f 119/132/126 81/93/127 117/129/128
f 100/112/129 75/85/130 76/88/131
f 123/138/132 88/100/133 79/91/134
f 83/95/135 118/131/136 85/97/137
f 88/100/133 81/93/127 79/91/134
f 122/136/138 77/89/139 75/86/130
f 128/144/140 108/120/141 104/116/142
f 75/86/130 78/90/143 76/87/131
f 77/89/139 80/92/144 78/90/143
f 79/91/134 82/94/145 80/92/144
f 81/93/127 84/96/146 82/94/145
f 83/95/135 86/98/147 84/96/146
f 74/84/148 104/116/149 85/97/117
f 95/107/150 106/118/151 104/116/149
f 98/110/152 107/119/152 106/118/152
f 128/144/153 96/108/154 108/120/155
f 108/120/156 94/106/125 105/117/124
f 89/101/98 103/115/157 91/103/157
f 91/103/158 102/114/158 92/104/158
f 102/114/159 93/105/160 92/104/161
f 101/113/162 90/102/163 93/105/162
f 117/129/128 120/133/164 119/132/126
f 120/133/164 121/134/165 119/132/126
f 121/134/165 118/130/136 119/132/126
f 122/136/138 125/140/166 124/139/167
f 125/140/166 126/141/168 124/139/167
f 126/141/168 123/137/132 124/139/167
f 118/131/118 115/127/169 113/125/116
f 121/135/170 116/128/171 115/127/169
f 120/133/172 114/126/173 116/128/171
f 109/121/110 126/142/174 111/123/175
f 111/123/175 125/140/176 112/124/177
f 112/124/177 122/136/178 110/122/111
f 107/119/179 127/143/180 128/144/153
f 110/122/111 122/136/178 75/86/112
f 122/136/138 124/139/167 77/89/139
f 73/83/96 75/85/112 100/112/97
f 65/73/99 90/102/163 99/111/100
f 67/76/102 80/92/119 82/94/103
f 72/81/105 114/126/173 117/129/106
f 71/80/108 88/100/113 123/138/109
f 71/80/108 72/81/105 87/99/107
f 66/75/114 65/74/99 76/87/101
f 113/125/116 74/84/148 85/97/117
f 67/76/102 66/75/114 78/90/115
f 69/78/120 84/96/123 86/98/121
f 68/77/104 82/94/103 84/96/123
f 70/79/122 86/98/121 105/117/124
f 83/95/135 81/93/127 119/132/126
f 81/93/127 87/99/181 117/129/128
f 76/88/131 99/111/182 100/112/129
f 99/111/182 101/113/183 100/112/129
f 101/113/183 102/114/184 103/115/185
f 103/115/185 100/112/129 101/113/183
f 79/91/134 77/89/139 124/139/167
f 124/139/167 123/138/132 79/91/134
f 83/95/135 119/132/126 118/131/136
f 88/100/133 87/99/181 81/93/127
f 105/117/186 86/98/147 104/116/142
f 86/98/147 85/97/137 104/116/142
f 104/116/142 106/118/187 128/144/140
f 105/117/186 104/116/142 108/120/141
f 106/118/187 107/119/187 128/144/140
f 75/86/130 77/89/139 78/90/143
f 77/89/139 79/91/134 80/92/144
f 79/91/134 81/93/127 82/94/145
f 81/93/127 83/95/135 84/96/146
f 83/95/135 85/97/137 86/98/147
f 74/84/148 95/107/150 104/116/149
f 95/107/150 98/110/151 106/118/151
f 98/110/152 97/109/152 107/119/152
f 128/144/153 127/143/180 96/108/154
f 108/120/156 96/108/156 94/106/125
f 89/101/98 100/112/97 103/115/157
f 91/103/158 103/115/158 102/114/158
f 102/114/159 101/113/188 93/105/160
f 101/113/162 99/111/100 90/102/163
f 118/131/118 121/135/170 115/127/169
f 121/135/170 120/133/172 116/128/171
f 120/133/172 117/129/106 114/126/173
f 109/121/110 123/138/109 126/142/174
f 111/123/175 126/142/174 125/140/176
f 112/124/177 125/140/176 122/136/178
f 107/119/179 97/109/179 127/143/180
